<mxfile host="Electron" modified="2024-05-23T10:39:04.781Z" agent="Mozilla/5.0 (X11; Linux x86_64) AppleWebKit/537.36 (KHTML, like Gecko) draw.io/24.4.0 Chrome/120.0.6099.109 Electron/28.1.0 Safari/537.36" etag="KtrGLN0jegAxVtxFB-am" version="24.4.0" type="device">
  <diagram name="Page-1" id="oK0jv48iwYHh-qT9Afh8">
    <mxGraphModel dx="455" dy="281" grid="1" gridSize="10" guides="1" tooltips="1" connect="1" arrows="1" fold="1" page="1" pageScale="1" pageWidth="827" pageHeight="583" math="0" shadow="0">
      <root>
        <mxCell id="0" />
        <mxCell id="1" parent="0" />
        <mxCell id="6EhDh1MC1kk2KzFrCOBp-1" value="State machine structure" style="text;html=1;align=center;verticalAlign=middle;whiteSpace=wrap;rounded=0;fontSize=18;" vertex="1" parent="1">
          <mxGeometry x="10" y="10" width="240" height="30" as="geometry" />
        </mxCell>
        <mxCell id="6EhDh1MC1kk2KzFrCOBp-52" value="" style="edgeStyle=orthogonalEdgeStyle;rounded=0;orthogonalLoop=1;jettySize=auto;html=1;" edge="1" parent="1" source="6EhDh1MC1kk2KzFrCOBp-5" target="6EhDh1MC1kk2KzFrCOBp-6">
          <mxGeometry relative="1" as="geometry" />
        </mxCell>
        <mxCell id="6EhDh1MC1kk2KzFrCOBp-5" value="" style="ellipse;html=1;shape=endState;fillColor=strokeColor;" vertex="1" parent="1">
          <mxGeometry x="60" y="125.5" width="30" height="30" as="geometry" />
        </mxCell>
        <mxCell id="6EhDh1MC1kk2KzFrCOBp-17" value="" style="edgeStyle=orthogonalEdgeStyle;rounded=0;orthogonalLoop=1;jettySize=auto;html=1;entryX=0;entryY=0.5;entryDx=0;entryDy=0;curved=1;" edge="1" parent="1" source="6EhDh1MC1kk2KzFrCOBp-6" target="6EhDh1MC1kk2KzFrCOBp-7">
          <mxGeometry relative="1" as="geometry" />
        </mxCell>
        <mxCell id="6EhDh1MC1kk2KzFrCOBp-18" value="[HOME]" style="edgeLabel;html=1;align=center;verticalAlign=middle;resizable=0;points=[];" vertex="1" connectable="0" parent="6EhDh1MC1kk2KzFrCOBp-17">
          <mxGeometry x="-0.1952" relative="1" as="geometry">
            <mxPoint as="offset" />
          </mxGeometry>
        </mxCell>
        <mxCell id="6EhDh1MC1kk2KzFrCOBp-54" style="edgeStyle=orthogonalEdgeStyle;rounded=0;orthogonalLoop=1;jettySize=auto;html=1;exitX=0.5;exitY=0;exitDx=0;exitDy=0;entryX=0.5;entryY=0;entryDx=0;entryDy=0;curved=1;startArrow=classic;startFill=1;" edge="1" parent="1" source="6EhDh1MC1kk2KzFrCOBp-6" target="6EhDh1MC1kk2KzFrCOBp-8">
          <mxGeometry relative="1" as="geometry">
            <mxPoint x="260" y="20" as="targetPoint" />
            <Array as="points">
              <mxPoint x="265" y="60" />
              <mxPoint x="563" y="60" />
            </Array>
          </mxGeometry>
        </mxCell>
        <mxCell id="6EhDh1MC1kk2KzFrCOBp-59" value="[STATE IDLE]&lt;div&gt;[STATE OPERATING]&lt;/div&gt;" style="edgeLabel;html=1;align=center;verticalAlign=middle;resizable=0;points=[];" vertex="1" connectable="0" parent="6EhDh1MC1kk2KzFrCOBp-54">
          <mxGeometry x="-0.0872" y="-1" relative="1" as="geometry">
            <mxPoint as="offset" />
          </mxGeometry>
        </mxCell>
        <mxCell id="6EhDh1MC1kk2KzFrCOBp-6" value="IDLE" style="shape=ellipse;html=1;dashed=0;whiteSpace=wrap;aspect=fixed;perimeter=ellipsePerimeter;fillColor=#dae8fc;strokeColor=#6c8ebf;" vertex="1" parent="1">
          <mxGeometry x="224" y="100" width="81" height="81" as="geometry" />
        </mxCell>
        <mxCell id="6EhDh1MC1kk2KzFrCOBp-40" value="" style="edgeStyle=orthogonalEdgeStyle;rounded=0;orthogonalLoop=1;jettySize=auto;html=1;entryX=0;entryY=0.5;entryDx=0;entryDy=0;curved=1;" edge="1" parent="1" source="6EhDh1MC1kk2KzFrCOBp-7" target="6EhDh1MC1kk2KzFrCOBp-8">
          <mxGeometry relative="1" as="geometry" />
        </mxCell>
        <mxCell id="6EhDh1MC1kk2KzFrCOBp-41" value="[ELBOW COMPL.]" style="edgeLabel;html=1;align=center;verticalAlign=middle;resizable=0;points=[];" vertex="1" connectable="0" parent="6EhDh1MC1kk2KzFrCOBp-40">
          <mxGeometry x="-0.1528" y="-1" relative="1" as="geometry">
            <mxPoint as="offset" />
          </mxGeometry>
        </mxCell>
        <mxCell id="6EhDh1MC1kk2KzFrCOBp-48" style="edgeStyle=orthogonalEdgeStyle;rounded=0;orthogonalLoop=1;jettySize=auto;html=1;exitX=0;exitY=1;exitDx=0;exitDy=0;entryX=0.5;entryY=0;entryDx=0;entryDy=0;curved=1;" edge="1" parent="1" source="6EhDh1MC1kk2KzFrCOBp-7" target="6EhDh1MC1kk2KzFrCOBp-10">
          <mxGeometry relative="1" as="geometry">
            <Array as="points">
              <mxPoint x="385" y="274.5" />
              <mxPoint x="165" y="274.5" />
            </Array>
          </mxGeometry>
        </mxCell>
        <mxCell id="6EhDh1MC1kk2KzFrCOBp-7" value="CALIBRATING" style="shape=ellipse;html=1;dashed=0;whiteSpace=wrap;aspect=fixed;perimeter=ellipsePerimeter;fillColor=#dae8fc;strokeColor=#6c8ebf;" vertex="1" parent="1">
          <mxGeometry x="373" y="200" width="81" height="81" as="geometry" />
        </mxCell>
        <mxCell id="6EhDh1MC1kk2KzFrCOBp-55" style="edgeStyle=orthogonalEdgeStyle;rounded=0;orthogonalLoop=1;jettySize=auto;html=1;exitX=0;exitY=0;exitDx=0;exitDy=0;entryX=0.5;entryY=0;entryDx=0;entryDy=0;curved=1;" edge="1" parent="1" source="6EhDh1MC1kk2KzFrCOBp-8" target="6EhDh1MC1kk2KzFrCOBp-7">
          <mxGeometry relative="1" as="geometry" />
        </mxCell>
        <mxCell id="6EhDh1MC1kk2KzFrCOBp-56" value="[HOME]" style="edgeLabel;html=1;align=center;verticalAlign=middle;resizable=0;points=[];" vertex="1" connectable="0" parent="6EhDh1MC1kk2KzFrCOBp-55">
          <mxGeometry x="-0.1495" y="22" relative="1" as="geometry">
            <mxPoint as="offset" />
          </mxGeometry>
        </mxCell>
        <mxCell id="6EhDh1MC1kk2KzFrCOBp-8" value="OPERATING" style="shape=ellipse;html=1;dashed=0;whiteSpace=wrap;aspect=fixed;perimeter=ellipsePerimeter;fillColor=#dae8fc;strokeColor=#6c8ebf;" vertex="1" parent="1">
          <mxGeometry x="522" y="100" width="81" height="81" as="geometry" />
        </mxCell>
        <mxCell id="6EhDh1MC1kk2KzFrCOBp-24" style="edgeStyle=orthogonalEdgeStyle;rounded=0;orthogonalLoop=1;jettySize=auto;html=1;exitX=1;exitY=0.5;exitDx=0;exitDy=0;entryX=0;entryY=0.5;entryDx=0;entryDy=0;" edge="1" parent="1" source="6EhDh1MC1kk2KzFrCOBp-10" target="6EhDh1MC1kk2KzFrCOBp-11">
          <mxGeometry relative="1" as="geometry" />
        </mxCell>
        <mxCell id="6EhDh1MC1kk2KzFrCOBp-10" value="RAIL" style="shape=ellipse;html=1;dashed=0;whiteSpace=wrap;aspect=fixed;perimeter=ellipsePerimeter;fillColor=#fff2cc;strokeColor=#d6b656;flipH=1;flipV=1;" vertex="1" parent="1">
          <mxGeometry x="131" y="364.5" width="69" height="69" as="geometry" />
        </mxCell>
        <mxCell id="6EhDh1MC1kk2KzFrCOBp-26" value="" style="edgeStyle=orthogonalEdgeStyle;rounded=0;orthogonalLoop=1;jettySize=auto;html=1;" edge="1" parent="1" source="6EhDh1MC1kk2KzFrCOBp-11" target="6EhDh1MC1kk2KzFrCOBp-14">
          <mxGeometry relative="1" as="geometry" />
        </mxCell>
        <mxCell id="6EhDh1MC1kk2KzFrCOBp-11" value="SHOULDER" style="shape=ellipse;html=1;dashed=0;whiteSpace=wrap;aspect=fixed;perimeter=ellipsePerimeter;fillColor=#fff2cc;strokeColor=#d6b656;flipH=1;flipV=1;" vertex="1" parent="1">
          <mxGeometry x="230" y="364.5" width="69" height="69" as="geometry" />
        </mxCell>
        <mxCell id="6EhDh1MC1kk2KzFrCOBp-50" style="edgeStyle=orthogonalEdgeStyle;rounded=0;orthogonalLoop=1;jettySize=auto;html=1;exitX=0.5;exitY=0;exitDx=0;exitDy=0;entryX=1;entryY=0.5;entryDx=0;entryDy=0;curved=1;" edge="1" parent="1" source="6EhDh1MC1kk2KzFrCOBp-12" target="6EhDh1MC1kk2KzFrCOBp-16">
          <mxGeometry relative="1" as="geometry" />
        </mxCell>
        <mxCell id="6EhDh1MC1kk2KzFrCOBp-12" value="ELBOW" style="shape=ellipse;html=1;dashed=0;whiteSpace=wrap;aspect=fixed;perimeter=ellipsePerimeter;fillColor=#fff2cc;strokeColor=#d6b656;flipH=1;flipV=1;" vertex="1" parent="1">
          <mxGeometry x="627" y="364.5" width="69" height="69" as="geometry" />
        </mxCell>
        <mxCell id="6EhDh1MC1kk2KzFrCOBp-29" value="" style="edgeStyle=orthogonalEdgeStyle;rounded=0;orthogonalLoop=1;jettySize=auto;html=1;" edge="1" parent="1" source="6EhDh1MC1kk2KzFrCOBp-13" target="6EhDh1MC1kk2KzFrCOBp-12">
          <mxGeometry relative="1" as="geometry" />
        </mxCell>
        <mxCell id="6EhDh1MC1kk2KzFrCOBp-13" value="WRIST" style="shape=ellipse;html=1;dashed=0;whiteSpace=wrap;aspect=fixed;perimeter=ellipsePerimeter;fillColor=#fff2cc;strokeColor=#d6b656;flipH=1;flipV=1;" vertex="1" parent="1">
          <mxGeometry x="528" y="364.5" width="69" height="69" as="geometry" />
        </mxCell>
        <mxCell id="6EhDh1MC1kk2KzFrCOBp-27" value="" style="edgeStyle=orthogonalEdgeStyle;rounded=0;orthogonalLoop=1;jettySize=auto;html=1;" edge="1" parent="1" source="6EhDh1MC1kk2KzFrCOBp-14" target="6EhDh1MC1kk2KzFrCOBp-15">
          <mxGeometry relative="1" as="geometry" />
        </mxCell>
        <mxCell id="6EhDh1MC1kk2KzFrCOBp-14" value="TWIST" style="shape=ellipse;html=1;dashed=0;whiteSpace=wrap;aspect=fixed;perimeter=ellipsePerimeter;fillColor=#fff2cc;strokeColor=#d6b656;flipH=1;flipV=1;" vertex="1" parent="1">
          <mxGeometry x="329" y="364.5" width="69" height="69" as="geometry" />
        </mxCell>
        <mxCell id="6EhDh1MC1kk2KzFrCOBp-28" value="" style="edgeStyle=orthogonalEdgeStyle;rounded=0;orthogonalLoop=1;jettySize=auto;html=1;" edge="1" parent="1" source="6EhDh1MC1kk2KzFrCOBp-15" target="6EhDh1MC1kk2KzFrCOBp-13">
          <mxGeometry relative="1" as="geometry" />
        </mxCell>
        <mxCell id="6EhDh1MC1kk2KzFrCOBp-15" value="PINCH" style="shape=ellipse;html=1;dashed=0;whiteSpace=wrap;aspect=fixed;perimeter=ellipsePerimeter;fillColor=#fff2cc;strokeColor=#d6b656;flipH=1;flipV=1;" vertex="1" parent="1">
          <mxGeometry x="429" y="364.5" width="69" height="69" as="geometry" />
        </mxCell>
        <mxCell id="6EhDh1MC1kk2KzFrCOBp-53" style="edgeStyle=orthogonalEdgeStyle;rounded=0;orthogonalLoop=1;jettySize=auto;html=1;exitX=0;exitY=0.5;exitDx=0;exitDy=0;entryX=1;entryY=1;entryDx=0;entryDy=0;curved=1;" edge="1" parent="1" source="6EhDh1MC1kk2KzFrCOBp-16" target="6EhDh1MC1kk2KzFrCOBp-7">
          <mxGeometry relative="1" as="geometry" />
        </mxCell>
        <mxCell id="6EhDh1MC1kk2KzFrCOBp-16" value="ERROR" style="shape=ellipse;html=1;dashed=0;whiteSpace=wrap;aspect=fixed;perimeter=ellipsePerimeter;fillColor=#f8cecc;strokeColor=#D6B656;fillStyle=auto;" vertex="1" parent="1">
          <mxGeometry x="528" y="277.53" width="69" height="69" as="geometry" />
        </mxCell>
        <mxCell id="6EhDh1MC1kk2KzFrCOBp-58" style="edgeStyle=orthogonalEdgeStyle;rounded=0;orthogonalLoop=1;jettySize=auto;html=1;exitX=1;exitY=0.5;exitDx=0;exitDy=0;entryX=1;entryY=0;entryDx=0;entryDy=0;curved=1;" edge="1" parent="1" source="6EhDh1MC1kk2KzFrCOBp-8" target="6EhDh1MC1kk2KzFrCOBp-8">
          <mxGeometry relative="1" as="geometry">
            <Array as="points">
              <mxPoint x="630" y="141" />
              <mxPoint x="630" y="100" />
              <mxPoint x="591" y="100" />
            </Array>
          </mxGeometry>
        </mxCell>
        <mxCell id="6EhDh1MC1kk2KzFrCOBp-61" value="update_controller" style="edgeLabel;html=1;align=center;verticalAlign=middle;resizable=0;points=[];" vertex="1" connectable="0" parent="6EhDh1MC1kk2KzFrCOBp-58">
          <mxGeometry x="-0.1853" y="-1" relative="1" as="geometry">
            <mxPoint x="19" as="offset" />
          </mxGeometry>
        </mxCell>
        <mxCell id="6EhDh1MC1kk2KzFrCOBp-62" value="Powerup" style="text;html=1;align=center;verticalAlign=middle;whiteSpace=wrap;rounded=0;" vertex="1" parent="1">
          <mxGeometry x="40" y="90" width="60" height="30" as="geometry" />
        </mxCell>
      </root>
    </mxGraphModel>
  </diagram>
</mxfile>
